<?xml version="1.0" encoding="utf-8"?>
<svg version="1.1" id="Layer_1" xmlns:serif="http://www.serif.com/"
	 xmlns="http://www.w3.org/2000/svg" xmlns:xlink="http://www.w3.org/1999/xlink" x="0px" y="0px" viewBox="0 0 1413.285 1663.17"
	 enable-background="new 0 0 1413.285 1663.17" xml:space="preserve">
<g>
	<g>
		<path d="M917.641,1175.437c-3.105-6.461-12.695-5.225-14.057,1.822c-29.588,153.041-141.197,264.071-270.936,299.203
			c-207.928,56.327-420.711-79.586-461.392-300.459c-4.394-23.853-5.281-35.891-5.204-70.745c0.06-28.997,0.439-36.364,2.615-50.863
			c17.576-117.018,80.038-209.204,158.549-263.186c5.867-4.032,9.089-10.924,8.593-18.026c-1.685-24.123-7.137-94.709-9.631-126.875
			c-0.601-7.75-8.901-12.388-15.817-8.836c-151.418,77.803-261.826,231.929-281.99,417.507
			c-2.039,18.751-2.043,85.197-0.013,104.068c26.786,248.49,215.762,449.049,472.904,471.808
			c17.271,1.531,73.914,0.499,91.232-1.659c180.421-22.496,324.544-132.408,399.441-275.462c0.01-0.019,0.027-0.031,0.027-0.052
			c0-0.031,0.028-0.054,0.043-0.082c3.603-6.941,3.751-15.166,0.391-22.231C978.253,1301.626,939.589,1221.114,917.641,1175.437z"/>
	</g>
	<g>
		<path d="M1373.542,1359.239c10.58-4.314,15.668-16.372,11.386-26.965l-26.364-65.225c-4.172-10.323-15.746-15.509-26.227-11.752
			c-29.217,10.473-85.114,31.11-114.821,42.054c-11.161,4.111-23.578-1.216-28.293-12.135
			c-31.366-72.64-139.827-329.23-179.799-423.848c-9.14-21.636-30.34-35.692-53.828-35.687
			c-87.927,0.017-304.347,1.348-432.616,3.051c-2.029,0.027-3.693-1.573-3.834-3.597c-4.769-68.546-5.079-72.76-5.964-84.014
			c-0.153-1.941,1.369-3.607,3.316-3.607h323.421c9.439,0,16.648-8.349,15.432-17.578c-8.602-65.285-64.459-115.726-132.155-115.726
			H503.153c-2.008,0-3.639-1.606-3.724-3.612c-1.338-31.485-13.099-247.459-15.384-281.279c-0.136-2.008,1.312-3.79,3.314-4
			l3.71-0.388c18.09-1.902,44.865-13.275,61.514-26.127c56.774-43.842,71.803-118.419,41.423-179.432
			c-29.657-59.552-93.438-86.382-148.366-75.364c-87.954,17.627-139.279,113.778-100.438,200.53l2.531,5.655
			c0.971,2.169,1.555,4.496,1.72,6.867c3.106,44.589,34.363,493.339,45.622,654.179c2.248,32.113,28.931,57.025,61.122,57.068
			c163.307,0.216,338.884,0.222,414.804,0.212c23.377-0.003,44.458,14.064,53.437,35.648l179.287,426.029
			c9.561,22.72,35.569,33.58,58.448,24.408C1221.869,1420.673,1329.866,1377.049,1373.542,1359.239z"/>
	</g>
</g>
</svg>
