<?xml version="1.0" encoding="UTF-8"?>
<svg xmlns="http://www.w3.org/2000/svg" xmlns:xlink="http://www.w3.org/1999/xlink" width="25pt" height="18pt" viewBox="0 0 25 18" version="1.1">
<g id="surface1">
<rect x="0" y="0" width="25" height="18" style="fill:rgb(0%,0%,40%);fill-opacity:1;stroke:none;"/>
<path style=" stroke:none;fill-rule:nonzero;fill:rgb(100%,100%,100%);fill-opacity:1;" d="M -12.5 0 L -12.5 2.011719 L 31.910156 18 L 37.5 18 L 37.5 15.988281 L -6.910156 0.00390625 L -12.5 0.00390625 Z M 37.5 0 L 37.5 2.011719 L -6.910156 18 L -12.5 18 L -12.5 15.988281 L 31.910156 0 Z M 37.5 0 "/>
<path style=" stroke:none;fill-rule:nonzero;fill:rgb(100%,100%,100%);fill-opacity:1;" d="M 8.335938 0 L 8.335938 18 L 16.664062 18 L 16.664062 0 Z M -12.5 6 L -12.5 12 L 37.5 12 L 37.5 6 Z M -12.5 6 "/>
<path style=" stroke:none;fill-rule:nonzero;fill:rgb(80%,0%,0%);fill-opacity:1;" d="M -12.5 7.199219 L -12.5 10.800781 L 37.5 10.800781 L 37.5 7.199219 Z M 10 0 L 10 18 L 15 18 L 15 0 Z M -12.5 18 L 4.164062 12 L 7.898438 12 L -8.773438 18 Z M -12.5 0 L 4.164062 6 L 0.4375 6 L -12.5 1.34375 Z M 17.105469 6 L 33.773438 0 L 37.5 0 L 20.835938 6 L 17.101562 6 Z M 37.503906 18 L 20.828125 12 L 24.554688 12 L 37.5 16.65625 L 37.5 18 Z M 37.503906 18 "/>
</g>
</svg>
